<svg width="28" height="34" viewBox="0 0 28 34" fill="none" xmlns="http://www.w3.org/2000/svg">
<path d="M20.3756 0.308154C20.3044 0.228555 17.7384 0.339575 15.5054 2.76315C13.2725 5.18463 13.616 7.96221 13.6663 8.03343C13.7166 8.10465 16.8502 8.21566 18.8507 5.39829C20.8511 2.58091 20.4468 0.389848 20.3756 0.308154ZM27.3175 24.8853C27.2169 24.6842 22.4473 22.3005 22.8914 17.7172C23.3354 13.1319 26.4 11.8751 26.4482 11.739C26.4963 11.6028 25.1976 10.0841 23.8214 9.31539C22.811 8.77339 21.6926 8.46286 20.5474 8.40628C20.3212 8.4 19.5356 8.20729 17.9206 8.64927C16.8565 8.94043 14.4581 9.88305 13.7983 9.92076C13.1363 9.95846 11.1673 8.82732 9.04955 8.52778C7.69428 8.26594 6.25731 8.80218 5.22881 9.21484C4.20241 9.6254 2.25014 10.7942 0.884397 13.9007C-0.481351 17.005 0.232944 21.9234 0.744052 23.4525C1.25516 24.9796 2.05324 27.4828 3.41061 29.3093C4.61716 31.3705 6.21752 32.8012 6.88573 33.2872C7.55394 33.7732 9.43917 34.0957 10.7463 33.4275C11.7978 32.7824 13.6956 32.4116 14.4455 32.4388C15.1933 32.4661 16.668 32.7614 18.1783 33.5679C19.3744 33.9805 20.5055 33.8088 21.6387 33.3479C22.772 32.885 24.4121 31.1296 26.3267 27.5707C27.0535 25.9159 27.3845 25.0215 27.3175 24.8853Z" fill="black"/>
</svg>
